<svg width="62" height="26" viewBox="0 0 62 26" fill="none" xmlns="http://www.w3.org/2000/svg">
<path d="M4.47368 25.7763C2.5 25.7763 1.42105 25.0132 1.42105 23.6316C1.42105 22.7105 2.06579 22.1447 3.0921 22.1447C3.31579 22.1447 3.48684 22.1579 3.71053 22.1579C4.27632 22.1579 4.94737 22 5.36842 21.3684L5.48684 21.0921L1.11842 9.44737C0.93421 8.97368 0.828947 8.43421 0.828947 8.03947C0.828947 6.78947 1.88158 5.86842 3.26316 5.86842C4.51316 5.86842 5.14474 6.39474 5.52632 7.78947L8.21053 17H8.28947L10.9737 7.73684C11.3421 6.44737 12.0395 5.86842 13.2368 5.86842C14.5789 5.86842 15.5132 6.73684 15.5132 7.94737C15.5132 8.34211 15.3947 8.92105 15.2368 9.36842L11.2895 20.3684C9.90789 24.2763 8 25.7763 4.47368 25.7763ZM23.4737 20.8421C18.9605 20.8421 16.1447 18.1053 16.1447 13.3289C16.1447 8.64474 19.0263 5.82895 23.4737 5.82895C27.9474 5.82895 30.8026 8.63158 30.8026 13.3289C30.8026 18.1184 27.9868 20.8421 23.4737 20.8421ZM23.4737 17.4211C25.0658 17.4211 26.0789 15.9605 26.0789 13.3421C26.0789 10.7632 25.0658 9.25 23.4737 9.25C21.8947 9.25 20.8816 10.7632 20.8816 13.3421C20.8816 15.9605 21.8684 17.4211 23.4737 17.4211ZM34.9342 20.8026C33.5658 20.8026 32.6053 20.0132 32.6053 18.3816V8.23684C32.6053 6.64474 33.5395 5.86842 34.8816 5.86842C36.2105 5.86842 37.1447 6.63158 37.1447 8.23684V8.93421H37.2368C37.8026 7.09211 39.3684 5.89474 41.3289 5.89474C43.4605 5.89474 44.9079 7 45.3158 8.94737H45.4079C45.9605 7.10526 47.6974 5.89474 49.8289 5.89474C52.6316 5.89474 54.5395 7.86842 54.5395 10.7763V18.3816C54.5395 20.0132 53.5658 20.8026 52.1974 20.8026C50.8289 20.8026 49.8684 20.0132 49.8684 18.3816V11.9605C49.8684 10.4605 49.1711 9.68421 47.8553 9.68421C46.5921 9.68421 45.8026 10.5921 45.8026 12V18.3816C45.8026 20.0132 44.9342 20.8026 43.5658 20.8026C42.1974 20.8026 41.3421 20.0132 41.3421 18.3816V11.9079C41.3421 10.4737 40.6316 9.68421 39.3553 9.68421C38.0921 9.68421 37.2763 10.6184 37.2763 12.0263V18.3816C37.2763 20.0132 36.3026 20.8026 34.9342 20.8026ZM59.1053 4.71053C57.75 4.71053 56.7105 3.72368 56.7105 2.43421C56.7105 1.13158 57.75 0.144737 59.1053 0.144737C60.4605 0.144737 61.4868 1.13158 61.4868 2.43421C61.4868 3.72368 60.4605 4.71053 59.1053 4.71053ZM59.1053 20.8026C57.6316 20.8026 56.7763 19.9211 56.7763 18.3816V8.28947C56.7763 6.76316 57.6316 5.86842 59.1053 5.86842C60.5658 5.86842 61.4342 6.76316 61.4342 8.28947V18.3816C61.4342 19.9211 60.5658 20.8026 59.1053 20.8026Z" fill="#030700"/>
</svg>
